<svg width="750" height="500" viewBox="0 0 750 500" fill="none" xmlns="http://www.w3.org/2000/svg">
<g clip-path="url(#clip0_302_4)">
<path d="M648.591 350.18C648.362 350.18 648.126 350.156 647.886 350.108C646.573 349.889 645.552 349.045 645.027 347.731C644.385 346.13 644.615 344.11 645.584 342.818C646.334 341.304 648.27 339.714 650.351 338.791C649.927 338.248 649.41 337.826 648.799 337.582C647.395 337.02 644.851 336.91 642.904 337.812C641.891 338.282 641.236 338.943 640.959 339.776C640.871 340.038 640.59 340.18 640.326 340.092C640.064 340.004 639.923 339.721 640.01 339.459C640.373 338.37 641.229 337.486 642.485 336.904C644.415 336.008 647.292 335.899 649.17 336.653C650.046 337.003 650.761 337.623 651.316 338.414C651.675 338.295 652.034 338.197 652.387 338.127C654.511 337.416 656.346 337.458 657.779 338.269C659.32 339.141 660.394 340.904 660.973 343.508C661.033 343.778 660.863 344.044 660.593 344.105C660.322 344.164 660.056 343.995 659.996 343.725C659.481 341.409 658.569 339.866 657.286 339.139C656.106 338.471 654.545 338.456 652.642 339.091C652.376 339.144 652.108 339.214 651.837 339.298C652.878 341.402 653.046 344.252 652.357 346.571C651.671 348.879 650.292 350.179 648.591 350.18ZM650.894 339.648C648.954 340.48 647.127 341.949 646.43 343.34C645.624 344.428 645.444 346.085 645.953 347.358C646.23 348.049 646.821 348.917 648.064 349.124C650.197 349.543 651.101 347.281 651.397 346.287C652.032 344.153 651.852 341.507 650.894 339.648Z" fill="black"/>
<path d="M233.438 379.067C230.985 379.067 228.7 378.094 226.958 376.297C226.185 375.425 225.6 374.267 225.247 373.013C223.953 372.901 222.71 372.455 221.613 371.696C219.7 370.372 218.409 368.205 218.072 365.753C217.691 362.713 218.739 360.843 220.381 358.335C220.532 358.105 220.843 358.04 221.073 358.191C221.304 358.342 221.368 358.652 221.218 358.883C219.657 361.265 218.718 362.865 219.063 365.621C219.361 367.791 220.499 369.708 222.182 370.873C223.042 371.469 224.006 371.842 225.012 371.98C224.801 370.768 224.805 369.518 225.06 368.386C225.541 366.249 226.81 364.687 228.727 363.869C229.889 363.374 231.112 363.506 232.002 364.221C233.024 365.041 233.456 366.482 233.158 368.074C232.646 370.168 230.281 372.206 227.651 372.844C227.195 372.948 226.737 373.01 226.284 373.033C226.598 374.022 227.077 374.927 227.69 375.619C229.324 377.304 231.528 378.167 233.861 378.057C236.322 377.931 238.608 376.752 240.133 374.821C240.304 374.604 240.619 374.568 240.836 374.738C241.052 374.909 241.089 375.223 240.919 375.44C239.215 377.598 236.662 378.915 233.913 379.055C233.754 379.064 233.595 379.067 233.438 379.067ZM230.131 364.572C229.805 364.572 229.463 364.644 229.12 364.791C227.086 365.658 226.32 367.345 226.035 368.607C225.791 369.69 225.803 370.893 226.031 372.041C226.492 372.033 226.959 371.977 227.424 371.871C229.673 371.326 231.765 369.565 232.182 367.864C232.406 366.668 232.107 365.588 231.377 365.002C231.021 364.717 230.592 364.572 230.131 364.572Z" fill="black"/>
<path d="M237.5 92.5C237.225 92.5 237.001 92.277 237 92.002C236.981 87.735 238.629 83.462 241.3 80.851C243.188 79.006 245.539 78.023 248.122 77.997C250.146 74.821 254.372 72.866 258.082 73.481C260.258 73.842 262.163 75.032 264.005 76.183C267.411 78.311 270.354 80.149 274.138 76.157C274.327 75.956 274.644 75.947 274.845 76.138C275.046 76.327 275.054 76.644 274.864 76.845C270.519 81.432 266.939 79.196 263.475 77.031C261.717 75.932 259.898 74.796 257.919 74.468C254.827 73.957 251.222 75.517 249.305 78.05C253.299 78.446 255.338 80.968 255.917 83.302C256.457 85.476 255.814 87.636 254.391 88.439C253.569 88.903 251.808 89.3 249.26 86.743C246.985 84.459 246.381 81.665 247.57 79.019C245.455 79.163 243.585 80.018 242.001 81.567C239.517 83.996 237.985 87.993 238.002 91.999C238.003 92.275 237.78 92.5 237.504 92.501C237.502 92.5 237.5 92.5 237.5 92.5ZM248.688 79.007C248.67 79.041 248.652 79.075 248.634 79.11C247.41 81.485 247.883 83.944 249.967 86.036C251.486 87.561 252.92 88.119 253.898 87.567C254.921 86.99 255.372 85.26 254.945 83.543C254.693 82.524 253.5 79.225 248.688 79.007Z" fill="black"/>
<path d="M648.545 232.669C645.043 232.669 642.319 230.508 641.607 227.165C640.963 224.14 641.951 222.117 642.892 220.953C644.246 219.28 646.427 218.281 648.726 218.281C651.934 218.281 654.627 220.12 655.931 223.2C656.513 224.622 656.422 226.327 655.679 228.007C654.829 229.927 653.23 231.509 651.505 232.136C650.533 232.49 649.537 232.669 648.545 232.669ZM648.726 219.28C646.726 219.28 644.836 220.14 643.669 221.581C642.515 223.008 642.14 224.867 642.585 226.956C643.194 229.819 645.534 231.668 648.545 231.668C649.42 231.668 650.301 231.509 651.163 231.196C652.64 230.658 654.02 229.281 654.764 227.601C655.397 226.172 655.483 224.746 655.007 223.583C653.868 220.891 651.519 219.28 648.726 219.28Z" fill="#A1D5D5"/>
<path d="M148.044 369.336C144.542 369.336 141.818 367.175 141.106 363.831C140.461 360.806 141.449 358.783 142.392 357.619C143.746 355.945 145.927 354.946 148.225 354.946C151.433 354.946 154.126 356.785 155.43 359.865C156.012 361.289 155.922 362.994 155.178 364.675C154.328 366.595 152.729 368.176 151.005 368.803C150.032 369.156 149.037 369.336 148.044 369.336ZM148.225 355.946C146.225 355.946 144.335 356.806 143.169 358.248C142.014 359.675 141.639 361.533 142.085 363.622C142.694 366.485 145.034 368.336 148.045 368.336C148.92 368.336 149.801 368.177 150.663 367.863C152.14 367.326 153.52 365.949 154.264 364.27C154.897 362.84 154.983 361.413 154.507 360.249C153.367 357.558 151.018 355.946 148.225 355.946Z" fill="#2196F3"/>
<path d="M637.574 300.254C635.703 300.254 633.964 299.337 632.921 297.802L622.898 283.046C622.06 281.811 621.753 280.318 622.036 278.842C622.317 277.366 623.152 276.092 624.387 275.253L639.145 265.228C640.073 264.599 641.158 264.266 642.283 264.266C644.154 264.266 645.894 265.183 646.938 266.72L656.962 281.475C658.697 284.035 658.029 287.531 655.472 289.269L640.718 299.29C639.786 299.921 638.7 300.254 637.574 300.254ZM642.281 265.266C641.357 265.266 640.466 265.539 639.706 266.056L624.948 276.081C623.934 276.769 623.249 277.816 623.016 279.03C622.785 280.243 623.037 281.469 623.725 282.483L633.748 297.239C634.604 298.501 636.034 299.254 637.573 299.254C638.498 299.254 639.389 298.981 640.152 298.462L654.906 288.441C657.009 287.012 657.557 284.139 656.131 282.036L646.108 267.282C645.252 266.02 643.82 265.266 642.281 265.266Z" fill="#2196F3"/>
<path d="M197.845 430.146C195.796 430.146 194.292 428.516 193.92 425.894L191.02 405.407C190.776 403.685 191.095 402.26 191.942 401.286C193.072 399.983 195.029 399.711 197.185 400.579L216.376 408.308C218.268 409.07 219.426 410.311 219.637 411.801C219.848 413.291 219.081 414.805 217.475 416.062L201.184 428.819C200.076 429.685 198.921 430.146 197.845 430.146ZM194.793 401.069C193.916 401.069 193.191 401.37 192.696 401.94C192.054 402.679 191.81 403.86 192.01 405.265L194.91 425.752C195.211 427.876 196.308 429.145 197.844 429.145C198.694 429.145 199.636 428.759 200.567 428.03L216.858 415.273C218.169 414.246 218.805 413.061 218.646 411.94C218.487 410.818 217.548 409.857 216.001 409.234L196.81 401.505C196.091 401.216 195.413 401.069 194.793 401.069Z" fill="#A1D5D5"/>
<path d="M353.325 87.871C352.423 87.871 351.461 87.594 350.467 87.047L332.336 77.077C330.549 76.095 329.548 74.725 329.516 73.22C329.485 71.715 330.428 70.305 332.172 69.249L349.873 58.533C350.911 57.905 351.92 57.586 352.873 57.586C355.159 57.586 356.675 59.438 356.734 62.305L357.166 82.99C357.2 84.625 356.766 85.952 355.91 86.825C355.239 87.509 354.346 87.871 353.325 87.871ZM352.872 58.586C352.115 58.586 351.257 58.863 350.389 59.388L332.688 70.104C331.263 70.967 330.491 72.066 330.515 73.199C330.539 74.332 331.356 75.398 332.817 76.201L350.948 86.171C352.654 87.108 354.248 87.091 355.194 86.125C355.858 85.447 356.193 84.37 356.165 83.01L355.733 62.325C355.685 60.019 354.589 58.586 352.872 58.586Z" fill="#2196F3"/>
<path d="M424.498 456.121C424.49 456.121 424.489 456.121 424.481 456.121C383.117 456.12 347.222 453.013 323.409 447.373C296.307 440.954 278.256 429.826 269.757 414.297C262.574 401.174 262.243 385.056 268.775 366.39C269.021 365.689 269.273 364.958 269.536 364.196C274.636 349.416 284.129 321.905 329.291 267.091C362.128 227.237 404.271 205.288 447.958 205.288C464.076 205.288 480.1 208.257 495.582 214.112C534.179 228.709 566.455 252.174 588.921 281.97C607.827 307.046 619.612 336.366 622.104 364.529C624.796 394.959 616.14 420.026 599.513 429.949C569.217 448.027 489.783 456.121 424.498 456.121ZM447.958 206.287C404.575 206.287 362.706 228.107 330.062 267.727C285.015 322.402 275.56 349.801 270.48 364.522C270.216 365.286 269.964 366.018 269.718 366.72C263.283 385.108 263.591 400.953 270.633 413.818C278.991 429.088 296.824 440.049 323.639 446.401C347.379 452.023 383.192 455.121 424.481 455.122C424.485 455.122 424.494 455.122 424.498 455.122C489.648 455.122 568.866 447.073 599.001 429.089C615.295 419.365 623.766 394.661 621.107 364.617C616.801 315.951 581.251 247.579 495.228 215.047C479.859 209.233 463.955 206.287 447.958 206.287Z" fill="black"/>
<mask id="mask0_302_4" style="mask-type:luminance" maskUnits="userSpaceOnUse" x="93" y="109" width="258" height="231">
<path d="M98.323 203.871C93.287 225.87 86.759 287.041 109.194 310.562C131.629 334.083 148.636 337.34 186.992 338.063C225.348 338.786 244.527 340.954 272.751 339.146C300.976 337.339 345.12 336.342 349.825 272.567C358.323 157.371 271.799 104.219 202.323 110.371C132.848 116.522 107.823 162.371 98.323 203.871Z" fill="white"/>
</mask>
<g mask="url(#mask0_302_4)">
<path d="M228.061 165.099C230.05 168.356 231.676 174.146 232.584 180.478C233.219 184.91 234.394 185.364 238.735 187.353C243.078 189.343 244.074 193.142 241.721 195.313C238.37 198.406 238.374 196.716 237.922 200.199C237.619 202.521 238.249 204.376 235.124 203.376C233.897 202.983 231.36 201.473 230.999 201.751C229.917 202.587 230.249 205.751 234.374 208.126C235.878 208.992 237.124 208.876 235.795 215.759C234.637 221.754 227.382 222.679 220.19 221.322C212.998 219.966 214.491 225.393 211.641 233.128C208.791 240.863 208.384 245.205 212.319 248.462C216.255 251.719 219.376 267.323 218.968 271.123C218.561 274.922 204.991 282.792 193.457 270.037C187.216 261.352 180.159 244.662 180.159 244.662C180.159 244.662 187.486 234.485 187.35 224.579C187.215 214.674 183.008 177.357 196.713 166.773C210.421 156.188 226.704 162.477 228.061 165.099Z" fill="white"/>
<path d="M207.616 277.524C203.94 277.524 198.435 276.283 193.089 270.37C186.851 261.696 179.772 245.022 179.701 244.855C179.633 244.694 179.654 244.51 179.756 244.368C179.828 244.267 186.985 234.206 186.853 224.584C186.835 223.216 186.735 221.275 186.621 219.028C185.901 204.947 184.404 175.649 196.411 166.376C202.867 161.39 209.611 160.343 214.132 160.343C221.477 160.343 227.551 163.024 228.507 164.869C230.449 168.047 232.123 173.721 233.081 180.407C233.664 184.481 234.629 184.923 238.691 186.782L238.946 186.899C241.461 188.052 243.088 189.869 243.409 191.884C243.638 193.32 243.16 194.669 242.063 195.681C240.873 196.78 240.087 197.295 239.566 197.637C238.703 198.203 238.687 198.214 238.42 200.263C238.365 200.687 238.342 201.094 238.321 201.47C238.23 203.048 238.083 204.848 234.974 203.851C234.455 203.685 233.742 203.344 233.052 203.013C232.45 202.725 231.568 202.303 231.221 202.227C231.04 202.436 230.95 202.8 230.979 203.232C231.06 204.419 232.06 206.214 234.626 207.691C234.758 207.767 234.889 207.836 235.016 207.902C236.644 208.755 237.507 209.545 236.288 215.852C235.477 220.053 231.697 222.367 225.645 222.367C223.919 222.367 222.053 222.18 220.1 221.811C219.398 221.679 218.767 221.612 218.224 221.612C215.275 221.612 214.719 223.44 213.744 227.573C213.345 229.265 212.892 231.183 212.113 233.298C209.086 241.514 209.219 245.242 212.64 248.074C216.743 251.469 219.898 267.161 219.468 271.174C219.193 273.731 214.096 277.524 207.616 277.524ZM180.73 244.72C181.645 246.851 188.145 261.785 193.865 269.743C198.931 275.341 204.142 276.524 207.616 276.524C213.652 276.524 218.267 272.984 218.473 271.067C218.866 267.396 215.716 251.918 212.002 248.845C207.697 245.281 208.39 240.51 211.174 232.953C211.932 230.895 212.377 229.009 212.77 227.344C213.692 223.436 214.358 220.612 218.223 220.612C218.837 220.612 219.511 220.683 220.284 220.829C222.176 221.186 223.98 221.367 225.644 221.367C229.549 221.367 234.395 220.377 235.305 215.663C236.441 209.779 235.689 209.385 234.55 208.789C234.412 208.717 234.27 208.642 234.125 208.559C231.656 207.138 230.106 205.172 229.98 203.301C229.923 202.459 230.183 201.75 230.694 201.355C231.128 201.019 231.883 201.347 233.482 202.112C234.142 202.428 234.824 202.754 235.277 202.9C235.802 203.068 236.225 203.153 236.533 203.153C237.125 203.153 237.235 202.909 237.321 201.413C237.343 201.015 237.369 200.583 237.427 200.134C237.728 197.817 237.846 197.568 239.015 196.8C239.508 196.476 240.253 195.987 241.382 194.945C242.225 194.167 242.593 193.135 242.419 192.04C242.156 190.386 240.701 188.803 238.527 187.807L238.273 187.691C234.142 185.799 232.75 185.163 232.089 180.548C231.15 173.992 229.526 168.455 227.635 165.359C227.001 164.136 221.668 161.342 214.131 161.342C209.766 161.342 203.255 162.353 197.022 167.166C185.429 176.119 186.908 205.065 187.619 218.976C187.734 221.233 187.834 223.183 187.853 224.569C187.979 233.818 181.848 243.106 180.73 244.72Z" fill="black"/>
<path d="M186.992 338.064C189.525 339.151 213.407 340.416 213.407 340.416C213.407 340.416 223.901 306.947 219.559 268.59C210.874 276.189 201.104 274.378 191.334 266.418C197.485 285.234 194.592 323.95 186.992 338.064Z" fill="black"/>
<path d="M223.736 189.57C224.264 191.262 225.475 192.391 226.44 192.091C227.405 191.789 227.757 190.172 227.23 188.479C226.702 186.787 225.49 185.658 224.528 185.96C223.563 186.262 223.207 187.877 223.736 189.57Z" fill="black"/>
<path d="M225.361 186.771C225.315 186.771 225.267 186.765 225.22 186.751C224.955 186.673 224.803 186.395 224.882 186.13L225.787 183.054C225.865 182.79 226.142 182.636 226.408 182.716C226.673 182.794 226.824 183.072 226.746 183.337L225.841 186.413C225.777 186.63 225.578 186.771 225.361 186.771Z" fill="black"/>
<path d="M201.285 288.852C198.492 268.252 189.282 254.623 181.135 241.997C179.885 240.059 178.73 240.336 178.197 240.442C174.301 241.214 169.955 243.043 171.069 245.429C171.305 245.934 171.668 246.453 172.12 247.031C170.43 247.372 168.407 247.796 166.004 248.325C156.956 250.314 151.358 253.892 145.749 259.501C140.14 265.109 111.459 299.886 103.499 308.751C113.994 329.015 132 332 132 332C132 332 148.455 315.447 158.767 302.782C158.405 305.314 157.14 328.836 153.521 338.063C159.913 341.771 177.677 341.593 187.557 341.17C189.179 342.658 195.496 341.319 195.496 341.319C195.496 341.319 204.179 310.201 201.285 288.852Z" fill="#2196F3"/>
<path d="M170.798 170.707C166.049 172.471 160.757 176.812 157.907 195.403C156.529 204.392 153.193 214.045 153.821 223.213C154.409 231.794 161.841 234.134 169.417 235.649C176.091 236.984 202.031 243.169 203.667 232C205.575 218.97 185.037 212.427 187.983 200.333C188.582 197.875 191.051 194.82 193.593 194.251C196.837 193.525 197.802 196.298 200.324 197.998C203.397 200.07 205.237 198.859 207.083 195.749C208.828 192.81 208.174 188.101 207.898 184.801C207.536 180.477 207.023 178.915 210.774 177.677C215.846 176.005 220.19 172.569 215.307 166.771C221.82 174.504 225.077 173.284 230.369 169.891C235.661 166.498 235.932 163.377 233.897 157.543C231.861 151.708 225.62 142.752 214.628 144.109C203.637 145.466 204.722 148.451 191.56 151.165C178.397 153.881 169.984 157.816 170.798 170.707Z" fill="black"/>
<path d="M219.92 180.841C219.864 180.841 219.808 180.832 219.752 180.812C219.492 180.719 219.356 180.434 219.449 180.173C219.804 179.178 221.811 174.166 226.467 173.203C226.737 173.149 227.002 173.321 227.058 173.592C227.114 173.862 226.94 174.127 226.669 174.183C222.537 175.037 220.714 179.603 220.39 180.51C220.318 180.713 220.125 180.841 219.92 180.841Z" fill="black"/>
<path d="M187.173 340.734C187.163 340.734 187.152 340.734 187.142 340.733C186.866 340.715 186.657 340.478 186.674 340.203C186.701 339.768 186.793 338.584 186.927 336.86C187.71 326.801 189.791 300.081 189.028 293.979C188.229 287.59 189.96 285.99 192.581 283.567C192.909 283.264 193.253 282.946 193.611 282.601C192.321 281.779 188.933 279.626 186.369 278.06C183.691 276.424 183.101 274.203 181.527 268.264C181.057 266.493 180.524 264.484 179.817 262.032C177.668 254.569 174.607 250.852 172.581 248.392C172.084 247.788 171.655 247.267 171.297 246.767C171.136 246.542 171.188 246.23 171.413 246.069C171.639 245.908 171.951 245.961 172.111 246.185C172.449 246.658 172.868 247.167 173.353 247.756C175.431 250.28 178.572 254.093 180.778 261.755C181.488 264.218 182.045 266.319 182.493 268.009C183.993 273.664 184.555 275.781 186.89 277.207C190.114 279.178 194.634 282.068 194.679 282.098C194.806 282.179 194.89 282.315 194.907 282.465C194.923 282.615 194.87 282.765 194.764 282.872C194.235 283.401 193.731 283.867 193.261 284.302C190.698 286.671 189.286 287.976 190.021 293.855C190.797 300.058 188.711 326.852 187.925 336.938C187.791 338.655 187.699 339.834 187.673 340.266C187.655 340.53 187.436 340.734 187.173 340.734Z" fill="white"/>
<path d="M257.01 275.281L253.21 286.498C253.21 286.498 244.164 270.035 238.374 262.798C232.963 256.034 225.184 251.8 219.02 249.502C214.862 242.62 208.987 241.626 208.987 241.626C208.987 241.626 208.521 243.256 209.382 245.317C210.242 247.378 219.557 263.521 217.387 289.213C215.217 314.904 207.798 340.415 207.798 340.415H213.407C213.407 340.415 213.45 340.273 213.53 340.011C217.75 340.554 226.342 341.419 226.614 339.511C226.975 336.978 231.862 316.714 234.756 310.381C243.441 326.483 251.498 329.768 263.156 324.871C271.49 321.371 278.359 293.375 279.263 282.338C279.444 282.156 257.01 275.281 257.01 275.281Z" fill="#2196F3"/>
<path d="M213.407 340.915C213.359 340.915 213.31 340.908 213.261 340.894C212.997 340.813 212.848 340.534 212.929 340.269C213.041 339.903 224.159 303.48 225.765 296.52C227.416 289.362 227.364 288.503 226.287 286.399C224.933 283.756 223.772 281.434 223.772 281.434C223.656 281.202 223.736 280.921 223.957 280.785C225.178 280.031 228.232 277.627 227.713 275.587C226.558 271.056 222.158 256.041 218.942 250.335L218.838 250.152C218.701 249.912 218.784 249.607 219.024 249.47C219.263 249.331 219.569 249.416 219.706 249.656L219.813 249.845C223.079 255.638 227.519 270.777 228.682 275.342C229.365 278.022 226.032 280.584 224.866 281.385C225.254 282.157 226.161 283.96 227.178 285.946C228.436 288.402 228.386 289.613 226.741 296.747C225.127 303.741 213.998 340.196 213.886 340.564C213.82 340.776 213.622 340.915 213.407 340.915Z" fill="white"/>
<path d="M234.755 310.881C234.686 310.881 234.615 310.866 234.547 310.836C234.296 310.721 234.186 310.424 234.3 310.173C242.433 292.37 239.402 285.962 237.59 282.133C237.275 281.467 237.003 280.891 236.814 280.324C236.727 280.062 236.869 279.779 237.13 279.691C237.395 279.603 237.676 279.747 237.763 280.007C237.933 280.517 238.193 281.068 238.494 281.704C240.38 285.69 243.536 292.361 235.209 310.588C235.126 310.772 234.945 310.881 234.755 310.881Z" fill="black"/>
<path d="M256.152 293.783C255.965 293.783 255.786 293.679 255.7 293.499C255.68 293.457 253.682 289.276 251.89 284.973C251.784 284.718 251.904 284.425 252.159 284.319C252.413 284.217 252.706 284.333 252.813 284.589C254.596 288.869 256.582 293.028 256.603 293.069C256.722 293.318 256.617 293.617 256.368 293.736C256.297 293.768 256.224 293.783 256.152 293.783Z" fill="black"/>
<path d="M258.457 270.984C260.492 264.607 263.478 247.374 264.156 240.996C264.834 234.619 261.035 225.663 265.512 219.964C269.99 214.265 272.84 211.415 274.061 208.566C275.283 205.716 278.132 205.309 279.625 208.159C281.118 211.009 278.81 216.03 275.419 219.557C283.696 214.265 284.374 216.164 286.952 212.094C289.531 208.023 294.552 197.574 297.809 197.846C300.523 194.182 303.643 196.217 304.186 201.239C305.815 201.103 307.307 204.903 306.222 210.601C310.157 212.909 309.749 221.321 304.186 227.699C298.623 234.077 288.039 237.876 285.732 243.033C283.425 248.189 279.626 278.449 279.626 278.449L258.457 270.984Z" fill="white"/>
<path d="M279.625 278.948C279.569 278.948 279.513 278.938 279.458 278.92L258.29 271.456C258.035 271.366 257.898 271.09 257.98 270.832C260.031 264.407 263.006 247.076 263.659 240.943C263.887 238.794 263.595 236.347 263.285 233.757C262.684 228.737 262.062 223.546 265.12 219.655C266.498 217.902 267.715 216.425 268.789 215.123C271.195 212.205 272.784 210.278 273.602 208.369C274.314 206.706 275.572 205.714 276.966 205.714C278.201 205.714 279.331 206.52 280.068 207.926C281.403 210.474 280.042 214.33 277.711 217.579C279.847 216.354 281.335 215.699 282.417 215.222C284.397 214.35 285.138 214.024 286.53 211.825C287.08 210.957 287.761 209.761 288.484 208.495C291.912 202.484 294.964 197.493 297.563 197.343C298.774 195.806 299.923 195.475 300.686 195.475C302.658 195.475 304.183 197.541 304.633 200.777C304.957 200.856 305.345 201.059 305.727 201.52C306.727 202.729 307.583 205.757 306.774 210.358C308.04 211.232 308.871 212.708 309.188 214.651C309.861 218.782 308.045 224.032 304.563 228.025C301.938 231.035 298.313 233.415 294.807 235.717C290.98 238.23 287.366 240.603 286.189 243.235C283.939 248.265 280.16 278.208 280.122 278.509C280.103 278.658 280.018 278.792 279.889 278.872C279.808 278.923 279.717 278.948 279.625 278.948ZM259.077 270.673L279.207 277.771C279.774 273.325 283.121 247.645 285.275 242.829C286.572 239.93 290.305 237.479 294.257 234.884C297.706 232.619 301.273 230.277 303.808 227.371C307.103 223.593 308.828 218.665 308.2 214.815C307.908 213.026 307.137 211.718 305.968 211.033C305.785 210.926 305.69 210.716 305.73 210.508C306.522 206.345 305.913 203.316 304.956 202.161C304.796 201.967 304.547 201.736 304.27 201.736C304.015 201.736 303.716 201.547 303.689 201.293C303.378 198.413 302.17 196.478 300.686 196.478C299.875 196.478 299.019 197.054 298.211 198.145C298.108 198.284 297.943 198.364 297.768 198.346H297.766C295.425 198.346 291.771 204.753 289.353 208.993C288.625 210.27 287.937 211.476 287.375 212.363C285.819 214.819 284.879 215.233 282.82 216.14C281.293 216.812 279.201 217.734 275.689 219.979C275.475 220.114 275.193 220.069 275.033 219.875C274.872 219.679 274.884 219.394 275.059 219.212C278.132 216.016 280.622 211.138 279.183 208.392C278.617 207.311 277.83 206.716 276.967 206.716C275.986 206.716 275.072 207.482 274.522 208.764C273.647 210.805 272.022 212.777 269.561 215.761C268.49 217.059 267.277 218.531 265.906 220.275C263.105 223.841 263.701 228.822 264.277 233.64C264.594 236.288 264.893 238.79 264.653 241.051C264.012 247.074 261.137 263.863 259.077 270.673Z" fill="black"/>
<path d="M280.303 228.877C280.077 228.877 279.872 228.723 279.817 228.493C279.131 225.613 276.552 220.914 275.141 219.973C274.911 219.82 274.849 219.509 275.002 219.28C275.155 219.05 275.465 218.988 275.695 219.141C277.451 220.312 280.096 225.354 280.789 228.262C280.853 228.531 280.687 228.8 280.418 228.864C280.381 228.873 280.342 228.877 280.303 228.877Z" fill="black"/>
<path d="M296.859 226.163C296.675 226.163 296.499 226.062 296.411 225.887C295.906 224.876 289.898 217.674 287.608 216.91C287.346 216.823 287.205 216.54 287.292 216.278C287.379 216.016 287.661 215.874 287.924 215.962C290.55 216.838 296.756 224.343 297.305 225.44C297.429 225.687 297.328 225.987 297.081 226.111C297.01 226.146 296.934 226.163 296.859 226.163Z" fill="black"/>
<path d="M295.637 226.842C295.448 226.842 295.267 226.735 295.182 226.552C295.066 226.301 295.176 226.004 295.427 225.888C296.998 225.163 300.454 220.732 301.387 215.667C301.865 213.071 302.663 211.458 303.827 210.737C304.905 210.069 306.097 210.298 306.9 210.527C307.166 210.603 307.319 210.88 307.244 211.145C307.167 211.41 306.891 211.56 306.626 211.489C305.626 211.202 304.925 211.234 304.355 211.587C303.456 212.144 302.789 213.578 302.371 215.849C301.41 221.063 297.807 225.891 295.847 226.796C295.778 226.827 295.707 226.842 295.637 226.842Z" fill="black"/>
<path d="M293.873 222.363C293.733 222.363 293.595 222.305 293.496 222.191C293.315 221.982 293.337 221.667 293.545 221.485C296.503 218.913 297.715 215.163 298.81 209.555C299.817 204.393 301.78 201.521 304.642 201.017C304.912 200.967 305.173 201.15 305.221 201.422C305.269 201.694 305.088 201.953 304.816 202.001C302.402 202.426 300.712 205.032 299.792 209.746C298.656 215.568 297.377 219.479 294.202 222.24C294.106 222.323 293.99 222.363 293.873 222.363Z" fill="black"/>
<path d="M290.751 218.836C290.651 218.836 290.551 218.807 290.464 218.745C290.238 218.586 290.184 218.274 290.343 218.049C291.815 215.956 293.663 209.975 295.148 205.17C296.259 201.576 297.218 198.472 297.911 197.2C298.044 196.957 298.347 196.868 298.589 197C298.832 197.132 298.921 197.436 298.789 197.678C298.143 198.862 297.153 202.069 296.103 205.464C294.518 210.591 292.723 216.402 291.16 218.624C291.064 218.762 290.909 218.836 290.751 218.836Z" fill="black"/>
<path d="M157.681 304.368C157.567 304.368 157.451 304.329 157.358 304.249C157.148 304.07 157.122 303.755 157.301 303.544C160.35 299.958 166.484 293.459 166.546 293.394C166.735 293.195 167.051 293.184 167.252 293.374C167.453 293.564 167.462 293.88 167.272 294.081C167.211 294.145 161.095 300.625 158.062 304.192C157.964 304.309 157.823 304.368 157.681 304.368Z" fill="black"/>
<path d="M257.573 269.371C255.573 273.121 254.416 279.203 254.823 279.746C255.23 280.289 270.073 281.496 280.198 288.746C282.505 289.831 283.242 279.142 282.882 277.905C281.932 274.648 258.795 268.014 257.573 269.371Z" fill="black"/>
<path d="M201.104 288.447C200.987 288.447 200.871 288.407 200.776 288.324C200.73 288.285 196.171 284.327 194.05 282.914C193.821 282.761 193.758 282.45 193.911 282.221C194.064 281.992 194.373 281.929 194.604 282.082C196.777 283.53 201.242 287.405 201.431 287.57C201.639 287.751 201.661 288.066 201.48 288.275C201.382 288.389 201.243 288.447 201.104 288.447Z" fill="white"/>
<path d="M217.584 286.413C217.456 286.413 217.328 286.364 217.23 286.267C217.035 286.072 217.035 285.755 217.23 285.56C219.141 283.65 221.582 282.184 223.198 281.214C223.599 280.974 223.943 280.768 224.205 280.598C224.437 280.448 224.747 280.513 224.897 280.744C225.047 280.975 224.981 281.285 224.75 281.435C224.48 281.611 224.126 281.823 223.713 282.071C222.139 283.015 219.761 284.443 217.938 286.266C217.84 286.364 217.712 286.413 217.584 286.413Z" fill="white"/>
<path d="M203.051 215.347C202.523 210.414 198.634 205.358 194.017 208.307C190.002 210.871 188.78 217.774 192.454 221.047C194.018 222.44 196.55 223.091 198.666 222.676C202.221 221.979 203.409 218.691 203.051 215.347Z" fill="#D1D1D1"/>
</g>
<path d="M250.456 340.349H250.454C240.697 340.349 231.142 339.989 220.08 339.571C210.578 339.213 199.807 338.805 186.984 338.564C149.523 337.858 131.965 335.16 108.834 310.908C87.188 288.214 92.078 228.92 97.837 203.76C110.96 146.436 146.099 114.848 202.28 109.874C205.878 109.556 209.567 109.394 213.242 109.394C250.399 109.394 287.718 125.688 313.071 152.98C332.545 173.944 354.817 211.715 350.324 272.605C345.713 335.101 303.214 337.748 275.091 339.501L272.783 339.647C265.29 340.125 258.195 340.349 250.456 340.349ZM213.242 110.393C209.596 110.393 205.937 110.553 202.367 110.869C146.667 115.801 111.825 147.129 98.81 203.982C93.09 228.971 88.189 287.817 109.556 310.217C132.426 334.194 149.836 336.863 187.001 337.563C199.834 337.805 210.609 338.211 220.117 338.571C231.17 338.988 240.715 339.348 250.453 339.348H250.455C258.173 339.348 265.247 339.125 272.719 338.647L275.028 338.502C302.804 336.772 344.779 334.157 349.326 272.53C352.86 224.618 340.07 183.513 312.337 153.659C287.17 126.567 250.125 110.393 213.242 110.393Z" fill="black"/>
<path d="M264.353 134.431C271.129 132.663 292.789 128.537 304.134 126.18C315.48 123.822 327.857 122.201 329.477 122.939C331.097 123.675 313.122 146.366 304.723 155.353C301.924 157.268 298.093 153.733 298.093 153.733C290.137 161.984 281.149 165.078 279.676 165.373C278.202 165.667 277.465 156.533 277.318 151.08C277.171 145.629 278.138 144.567 273.635 142.388C259.637 135.608 264.353 134.431 264.353 134.431Z" fill="#2196F3"/>
<path d="M279.675 165.872C279.455 165.872 279.254 165.726 279.193 165.504C279.12 165.237 279.277 164.962 279.543 164.89C280.282 164.621 282.971 160.266 284.934 157.086C287.044 153.669 289.037 150.44 290.224 149.253C292.461 147.016 313.071 132.947 321.819 127.026L278.975 144.03C278.719 144.131 278.428 144.006 278.325 143.75C278.223 143.493 278.349 143.203 278.605 143.101L325.753 124.389C326 124.289 326.284 124.405 326.394 124.65C326.503 124.894 326.4 125.182 326.161 125.301C324.705 126.073 293.269 147.621 290.929 149.96C289.824 151.065 287.769 154.393 285.782 157.611C282.369 163.139 280.772 165.59 279.804 165.854C279.763 165.866 279.719 165.872 279.675 165.872Z" fill="black"/>
<path d="M298.976 154.822C298.873 154.822 298.77 154.791 298.681 154.726L298.466 154.568C295.445 152.359 291.684 149.603 290.802 150.053C290.555 150.176 290.256 150.076 290.131 149.829C290.007 149.582 290.108 149.282 290.355 149.158C291.716 148.479 294.411 150.364 299.056 153.76L299.271 153.917C299.494 154.08 299.543 154.393 299.38 154.616C299.282 154.751 299.13 154.822 298.976 154.822Z" fill="black"/>
<path d="M337.429 235.454C331.762 235.973 328.545 239.493 329.113 249.509C329.679 259.528 327.411 269.867 331.381 273.742C335.351 277.621 345.366 277.623 354.63 277.783C363.892 277.943 375.887 277.672 379.438 277.621C387.801 277.5 390.778 276.047 391.913 269.502C392.581 265.65 390.978 243.919 390.921 241.634C390.778 235.939 387.093 235.212 379.013 234.848C371.265 234.499 342.722 234.969 337.429 235.454Z" fill="#D1D1D1"/>
<path d="M360.181 261.974C360.143 261.974 360.106 261.973 360.069 261.973C356.082 261.913 352.841 258.559 350.462 255.643C346.067 250.252 336.178 239.198 333.774 237.144C333.564 236.965 333.539 236.649 333.719 236.439C333.898 236.228 334.214 236.205 334.424 236.384C336.859 238.465 346.82 249.594 351.238 255.01C353.479 257.758 356.51 260.919 360.084 260.973C362.641 260.99 365.313 259.439 368.033 256.3C375.52 247.662 386.631 236.781 386.742 236.672C386.941 236.479 387.258 236.483 387.449 236.68C387.642 236.877 387.639 237.194 387.441 237.387C387.33 237.496 376.249 248.348 368.789 256.954C365.864 260.33 363.046 261.974 360.181 261.974Z" fill="black"/>
<path d="M331.381 274.242C331.197 274.242 331.02 274.14 330.933 273.965C330.81 273.718 330.91 273.418 331.158 273.295C332.458 272.648 339.088 266.39 343.928 261.821C347.938 258.036 350.233 255.878 350.777 255.546C351.013 255.401 351.32 255.476 351.465 255.712C351.609 255.947 351.535 256.255 351.299 256.4C350.819 256.694 347.805 259.538 344.615 262.549C338.055 268.74 332.932 273.529 331.604 274.19C331.532 274.226 331.456 274.242 331.381 274.242Z" fill="black"/>
<path d="M387.898 275.859C387.727 275.859 387.56 275.771 387.466 275.612C387.148 275.07 383.423 271.035 379.821 267.133C375.066 261.983 370.15 256.657 369.406 255.476C369.259 255.243 369.329 254.933 369.562 254.787C369.798 254.639 370.105 254.712 370.251 254.943C370.946 256.047 376.051 261.577 380.555 266.456C385.143 271.426 387.973 274.502 388.328 275.107C388.468 275.345 388.388 275.651 388.149 275.792C388.072 275.837 387.985 275.859 387.898 275.859Z" fill="black"/>
<mask id="mask1_302_4" style="mask-type:luminance" maskUnits="userSpaceOnUse" x="385" y="48" width="257" height="224">
<path d="M472.915 54.806C437.981 62.17 383.297 77.374 385.813 144.02C388.329 210.666 413.953 245.016 456.736 258.345C499.519 271.674 604.498 285.364 626.787 241.054C649.077 196.744 641.728 133.484 630.225 107.185C618.721 80.886 590.836 29.95 472.915 54.806Z" fill="white"/>
</mask>
<g mask="url(#mask1_302_4)">
<path d="M567.416 109.167C564.666 97.501 539.332 82.501 528.499 86.668C517.666 90.834 531.499 95.667 531.499 95.667C514.833 92.667 506.833 94.666 505.166 98.834C503.499 103.001 510.499 104.667 510.499 104.667C499.166 105.001 486.5 113.834 488.333 120.001C490.166 126.167 497.666 123.917 497.666 123.917C486.999 132.501 488.739 141.229 499.869 140.198C488.166 149.001 486.501 165.167 491 171.001C495.499 176.835 499.867 168.005 499.867 168.005C495.166 181.001 502.165 189.501 508.832 178.668C507.333 193.501 520.499 195.501 524.666 188.168C528.666 202.335 538.166 200.167 539.833 193.168C545 199.668 555.166 197.501 557.166 190.501C562.833 197.168 567.833 191.084 567.333 185.918C573.166 192.751 582.333 193.584 584.166 181.168C592.499 187.335 596.666 187.168 594.416 172.418C608.333 177.501 615.666 162.001 599.666 148.668C610.333 151.501 609.166 140.501 593.916 133.918C604.666 133.668 605.999 126.334 600.666 120.918C595.333 115.501 586.333 105 567.416 109.167Z" fill="black"/>
<path d="M514.445 137.636C512.817 147.406 515.712 150.302 518.606 157.177C521.502 164.052 517.454 171.297 525.166 179.882C532.357 187.888 543.213 187.391 543.213 187.391L546.288 199.875L572.885 192.999L567.096 167.941C567.096 167.941 572.524 164.957 570.895 154.281C569.267 143.606 569.086 117.192 543.213 121.172C517.34 125.151 516.798 129.855 514.445 137.636Z" fill="white"/>
<path d="M546.288 200.375C546.198 200.375 546.11 200.351 546.032 200.304C545.917 200.236 545.835 200.124 545.803 199.994L542.823 187.896C540.933 187.895 531.347 187.51 524.795 180.215C519.84 174.698 519.617 169.596 519.421 165.094C519.303 162.398 519.192 159.851 518.147 157.369C517.587 156.037 517.032 154.868 516.495 153.737C514.329 149.173 512.618 145.569 513.954 137.552L514.201 136.714C516.462 129.141 517.826 124.569 543.139 120.676C544.911 120.404 546.62 120.265 548.219 120.265C567.268 120.265 569.548 139.192 570.91 150.5C571.074 151.866 571.224 153.117 571.39 154.204C572.838 163.696 568.866 167.309 567.662 168.167L573.373 192.884C573.433 193.148 573.273 193.413 573.011 193.481L546.414 200.357C546.372 200.37 546.33 200.375 546.288 200.375ZM543.213 186.891C543.442 186.891 543.644 187.047 543.698 187.271L546.652 199.264L572.288 192.636L566.608 168.053C566.558 167.835 566.659 167.61 566.854 167.502C566.904 167.474 571.95 164.511 570.4 154.355C570.233 153.259 570.081 151.998 569.915 150.621C568.593 139.642 566.379 121.266 548.217 121.266C546.668 121.266 545.01 121.4 543.289 121.665C518.601 125.462 517.306 129.805 515.157 137L514.924 137.779C513.655 145.424 515.224 148.732 517.397 153.309C517.939 154.45 518.499 155.629 519.068 156.982C520.182 159.628 520.297 162.262 520.42 165.051C520.618 169.596 520.823 174.297 525.539 179.547C531.822 186.542 541.05 186.896 542.836 186.896C543.316 186.896 543.198 186.891 543.213 186.891Z" fill="black"/>
<path d="M577.037 145.163C576.134 139.711 575.026 134.554 572.208 129.696C570.47 126.7 568.901 123.618 565.963 121.621C557.71 116.012 546.596 116.348 537.204 118.297C529.745 119.845 521.442 122.487 515.662 127.629C513.741 129.337 505.962 137.092 511 139.333C513.95 140.645 517.201 137.861 519.426 135.981C519.527 136.264 519.685 136.568 519.916 136.916C521.416 139.166 525.166 139.416 527.666 138.916C534.166 137.916 540.416 133.666 545.166 128.916C544.166 130.416 542.916 132.416 543.416 134.416C544.416 136.666 546.666 136.916 548.666 136.916C552.916 136.666 556.916 133.166 559.916 130.416C557.416 135.166 554.666 139.916 554.416 145.416C554.166 147.916 554.416 150.666 555.416 152.916C556.666 155.916 559.416 155.916 561.916 154.166C560.666 158.166 559.916 161.916 561.666 165.915C562.709 168.3 565.999 172.332 570.583 171.499C574.244 170.834 574.922 162.246 576.249 159.249C578.726 153.656 578.045 151.253 577.037 145.163Z" fill="black"/>
<path d="M509.433 141.129C507.195 141.129 505.03 140.333 504.426 138.064C504.074 136.745 504.283 135.146 504.596 134.089C505.202 132.031 507.073 129.118 508.764 127.596C508.967 127.411 509.283 127.427 509.47 127.633C509.655 127.838 509.638 128.154 509.432 128.339C507.884 129.732 506.109 132.495 505.555 134.372C505.281 135.298 505.094 136.686 505.393 137.806C506.144 140.627 510.128 140.135 510.92 140.007C513.291 139.626 515.049 139.082 516.452 138.298C516.692 138.165 516.998 138.25 517.133 138.49C517.268 138.731 517.182 139.036 516.941 139.171C515.432 140.014 513.57 140.594 511.079 140.995C510.54 141.081 509.984 141.129 509.433 141.129Z" fill="white"/>
<path d="M535.822 170.498C535.813 170.498 535.803 170.498 535.795 170.497C532.505 170.315 530.449 169.555 529.509 168.172C528.341 166.454 529.087 164.212 529.81 162.044C529.951 161.621 530.091 161.199 530.215 160.786C531.323 157.09 528.785 152.629 525.958 150.048C523.727 148.011 520.882 147.629 519.054 148.151C518.016 148.448 517.303 149.033 517.099 149.758C517.024 150.024 516.752 150.178 516.482 150.104C516.216 150.029 516.062 149.753 516.136 149.487C516.437 148.421 517.4 147.584 518.78 147.19C520.877 146.59 524.118 147.014 526.632 149.31C529.785 152.188 532.411 156.942 531.172 161.074C531.046 161.496 530.902 161.928 530.758 162.361C530.113 164.299 529.446 166.302 530.336 167.611C531.078 168.704 532.934 169.339 535.85 169.501C536.126 169.516 536.337 169.752 536.322 170.028C536.307 170.292 536.086 170.498 535.822 170.498Z" fill="black"/>
<path d="M534.292 148.395C534.183 148.395 534.073 148.36 533.981 148.287C533.764 148.115 533.728 147.801 533.9 147.584C535.646 145.379 540.703 140.817 549.915 146.061C550.155 146.198 550.239 146.503 550.103 146.743C549.966 146.983 549.661 147.066 549.421 146.93C541.19 142.246 536.656 145.718 534.684 148.205C534.585 148.331 534.44 148.395 534.292 148.395Z" fill="black"/>
<path d="M546.039 156.125C546.876 157.688 546.836 159.343 545.945 159.82C545.055 160.299 543.652 159.419 542.813 157.855C541.973 156.294 542.018 154.639 542.906 154.164C543.798 153.686 545.199 154.563 546.039 156.125Z" fill="black"/>
<path d="M543.519 154.908C543.439 154.908 543.359 154.889 543.284 154.849L540.453 153.341C540.21 153.211 540.117 152.908 540.247 152.665C540.378 152.421 540.682 152.332 540.924 152.459L543.755 153.967C543.998 154.097 544.091 154.4 543.961 154.643C543.871 154.812 543.698 154.908 543.519 154.908Z" fill="black"/>
<path d="M527.178 157.754C528.014 159.317 527.974 160.971 527.083 161.449C526.194 161.927 524.79 161.047 523.952 159.483C523.112 157.922 523.156 156.267 524.045 155.792C524.936 155.314 526.338 156.19 527.178 157.754Z" fill="black"/>
<path d="M524.658 156.536C524.578 156.536 524.498 156.517 524.423 156.477L521.592 154.969C521.349 154.839 521.256 154.536 521.386 154.293C521.516 154.048 521.821 153.958 522.063 154.086L524.894 155.594C525.137 155.724 525.23 156.027 525.1 156.27C525.01 156.44 524.837 156.536 524.658 156.536Z" fill="black"/>
<path d="M539.182 179.004C536.796 179.004 534.453 176.789 532.583 172.766C532.507 172.603 532.524 172.412 532.629 172.266C532.732 172.12 532.904 172.041 533.086 172.058C533.598 172.109 534.127 172.162 534.647 172.162C536.577 172.162 538.863 171.403 544.84 167.523C545.001 167.418 545.206 167.416 545.371 167.514C545.535 167.613 545.628 167.797 545.61 167.988C544.985 174.783 542.522 179.004 539.182 179.004ZM533.875 173.132C535.474 176.241 537.383 178.004 539.182 178.004C541.761 178.004 543.804 174.478 544.502 168.928C538.234 172.917 536.136 173.292 533.875 173.132Z" fill="black"/>
<path d="M537.785 178.618C537.742 178.618 537.697 178.613 537.653 178.6C537.386 178.527 537.23 178.252 537.302 177.986C538.183 174.755 541.773 172.341 544.134 172.48C544.409 172.497 544.619 172.734 544.602 173.01C544.585 173.285 544.372 173.495 544.072 173.478C542.061 173.35 539.009 175.531 538.267 178.249C538.207 178.472 538.005 178.618 537.785 178.618Z" fill="black"/>
<path d="M477.673 263.604C482.422 258.992 505.083 229.003 513.903 218.283C522.722 207.563 532.9 207.292 546.741 207.156C543.333 193.5 544.238 193.198 544.917 193.333C545.595 193.469 558.525 196.289 571.417 187.333C574.833 186.417 574.694 200.1 577.951 201.864C581.207 203.629 602.918 199.15 613.639 209.871C624.359 220.59 631.822 245.965 631.822 245.965C625.987 255.328 586.364 284.773 536.565 271.204C535.615 266.997 528.83 260.483 526.794 252.207C518.381 263.198 512.41 271.339 512.41 271.339C512.41 271.339 485.679 269.575 477.673 263.604Z" fill="#2196F3"/>
<path d="M557.125 211.269C551.673 211.269 547.874 209.064 546.38 207.502C546.19 207.302 546.196 206.986 546.396 206.795C546.595 206.604 546.912 206.612 547.103 206.811C549.907 209.743 561.41 215.009 576.941 201.22C577.148 201.036 577.464 201.055 577.647 201.262C577.831 201.469 577.811 201.784 577.605 201.968C569.575 209.097 562.535 211.269 557.125 211.269Z" fill="black"/>
<path d="M554.25 211.141C554.035 211.141 553.837 211.002 553.771 210.787C553.59 210.192 549.327 196.182 548.877 194.197C548.816 193.928 548.985 193.66 549.254 193.599C549.525 193.538 549.79 193.707 549.852 193.976C550.294 195.925 554.683 210.35 554.728 210.496C554.808 210.76 554.66 211.04 554.395 211.12C554.347 211.134 554.298 211.141 554.25 211.141Z" fill="black"/>
<path d="M560.129 211.05C559.916 211.05 559.719 210.913 559.651 210.699L554.405 193.964C554.323 193.701 554.469 193.42 554.733 193.338C554.996 193.258 555.277 193.402 555.36 193.666L560.606 210.401C560.688 210.664 560.542 210.945 560.278 211.027C560.229 211.042 560.179 211.05 560.129 211.05Z" fill="black"/>
<path d="M566.281 209.24C566.071 209.24 565.875 209.106 565.805 208.896L560.558 192.884C560.472 192.621 560.616 192.339 560.878 192.253C561.135 192.167 561.422 192.31 561.509 192.572L566.756 208.584C566.842 208.847 566.698 209.129 566.436 209.215C566.385 209.232 566.333 209.24 566.281 209.24Z" fill="black"/>
<path d="M571.891 206.346C571.675 206.346 571.476 206.205 571.412 205.988L566.978 190.971C566.9 190.706 567.051 190.428 567.316 190.35C567.58 190.27 567.859 190.423 567.937 190.688L572.371 205.705C572.449 205.97 572.298 206.248 572.033 206.326C571.985 206.339 571.938 206.346 571.891 206.346Z" fill="black"/>
<path d="M543.357 187.984C543.303 187.984 543.251 187.983 543.199 187.982C542.924 187.975 542.705 187.746 542.712 187.47C542.719 187.194 542.92 186.981 543.225 186.982C546.768 187.106 556.29 183.995 562.365 176.492C562.539 176.277 562.853 176.245 563.068 176.418C563.283 176.592 563.316 176.907 563.142 177.121C556.938 184.783 547.169 187.984 543.357 187.984Z" fill="black"/>
<path d="M528.693 257.728C528.501 257.728 528.318 257.617 528.235 257.429C524.923 249.9 524.666 242.388 524.666 240.266C524.666 239.99 524.89 239.766 525.166 239.766C525.442 239.766 525.666 239.99 525.666 240.266C525.666 241.742 525.834 249.486 529.151 257.027C529.262 257.28 529.147 257.575 528.894 257.686C528.829 257.714 528.761 257.728 528.693 257.728Z" fill="black"/>
<path d="M601.561 267.226C601.344 267.226 601.145 267.084 601.082 266.867C601.037 266.714 596.584 251.474 594.708 245.714C594.623 245.451 594.767 245.17 595.028 245.084C595.296 245 595.573 245.143 595.659 245.405C597.54 251.179 601.997 266.433 602.041 266.586C602.119 266.852 601.967 267.129 601.702 267.206C601.655 267.219 601.607 267.226 601.561 267.226Z" fill="black"/>
<path d="M568.776 172.379C567.225 172.379 565.435 171.865 563.517 170.86C563.273 170.732 563.178 170.43 563.306 170.185C563.435 169.939 563.74 169.847 563.982 169.974C566.264 171.17 568.312 171.617 569.89 171.263C573.61 170.418 575.155 163.901 575.155 160.599C575.155 160.385 575.292 160.195 575.494 160.125C575.696 160.057 575.921 160.124 576.052 160.294C577.753 162.506 579.754 163.537 582.35 163.537C584.883 163.367 587.33 160.564 587.645 158.358C587.685 158.085 587.944 157.891 588.211 157.934C588.484 157.973 588.675 158.227 588.636 158.5C588.262 161.124 585.449 164.333 582.384 164.537H582.381C579.878 164.537 577.82 163.666 576.101 161.883C575.757 165.975 573.83 171.394 570.112 172.239C569.69 172.332 569.244 172.379 568.776 172.379Z" fill="white"/>
</g>
<path d="M546.176 271.835C546.171 271.835 546.17 271.835 546.165 271.835C510.872 271.834 475.852 264.824 456.588 258.822C411.007 244.621 387.693 207.075 385.314 144.039C384.209 114.742 394.204 92.113 415.025 76.78C432.259 64.088 453.909 58.302 472.812 54.317C493.78 49.898 513.073 47.656 530.155 47.656C560.959 47.656 585.619 54.927 603.452 69.265C618.125 81.062 625.713 95.619 630.683 106.984C637.014 121.457 641.227 144.589 641.679 167.355C642.073 187.197 639.886 216.128 627.234 241.278C614.53 266.531 576.144 271.835 546.176 271.835ZM530.154 48.656C513.141 48.656 493.918 50.89 473.018 55.295C428.838 64.609 383.988 82.431 386.313 144.001C388.674 206.562 411.758 243.808 456.884 257.867C477.599 264.321 513.238 270.834 546.164 270.835C546.168 270.835 546.172 270.835 546.175 270.835C575.863 270.835 613.864 265.629 626.34 240.829C638.9 215.862 641.07 187.103 640.678 167.375C640.229 144.732 636.047 121.745 629.766 107.385C622.74 91.323 604.076 48.656 530.154 48.656Z" fill="black"/>
<path d="M430.035 99.45H390.835C384.02 99.45 378.814 105.311 379.231 112.397L380.288 130.407C380.672 136.971 386.171 142.118 392.547 142.021L420.91 141.594C422.39 145.995 423.474 150.277 426.311 150.069C428.341 149.869 429.211 145.576 429.789 141.433C435.738 141.064 440.637 135.994 440.86 129.744L441.498 112.114C441.748 105.18 436.63 99.45 430.035 99.45Z" fill="white"/>
<path d="M426.113 150.576C423.335 150.576 422.191 147.092 420.867 143.058C420.763 142.741 420.658 142.421 420.551 142.1L392.368 142.523C385.71 142.523 380.184 137.214 379.788 130.436L378.731 112.426C378.517 108.784 379.77 105.236 382.17 102.692C384.445 100.279 387.523 98.95 390.835 98.95H430.035C433.208 98.95 436.186 100.226 438.422 102.544C440.824 105.034 442.127 108.529 441.997 112.131L441.359 129.761C441.133 136.058 436.279 141.31 430.226 141.899C429.59 146.316 428.66 150.339 426.359 150.566C426.269 150.573 426.19 150.576 426.113 150.576ZM420.909 141.094C421.124 141.094 421.314 141.231 421.383 141.435C421.531 141.874 421.675 142.313 421.818 142.746C423.052 146.505 424.137 149.736 426.274 149.57C428.174 149.383 428.987 143.557 429.294 141.364C429.327 141.129 429.521 140.949 429.758 140.934C435.491 140.579 440.149 135.656 440.361 129.726L440.999 112.096C441.12 108.764 439.919 105.535 437.704 103.239C435.659 101.119 432.937 99.951 430.037 99.951H390.837C387.803 99.951 384.984 101.168 382.899 103.379C380.688 105.724 379.534 109 379.731 112.369L380.788 130.379C381.147 136.525 386.343 141.524 392.37 141.524L392.54 141.522L420.903 141.095C420.903 141.095 420.906 141.094 420.909 141.094Z" fill="black"/>
<path d="M398.386 121.286C398.386 123.459 396.665 125.221 394.543 125.221C392.42 125.221 390.699 123.459 390.699 121.286C390.699 119.112 392.42 117.35 394.543 117.35C396.665 117.351 398.386 119.112 398.386 121.286Z" fill="#2196F3"/>
<path d="M413.579 121.286C413.579 123.459 411.858 125.221 409.735 125.221C407.613 125.221 405.891 123.459 405.891 121.286C405.891 119.112 407.613 117.35 409.735 117.35C411.858 117.351 413.579 119.112 413.579 121.286Z" fill="#2196F3"/>
<path d="M428.771 121.286C428.771 123.459 427.05 125.221 424.928 125.221C422.804 125.221 421.083 123.459 421.083 121.286C421.083 119.112 422.804 117.35 424.928 117.35C427.051 117.351 428.771 119.112 428.771 121.286Z" fill="#2196F3"/>
<path d="M556.111 438.118H517.19C516.914 438.118 516.69 437.894 516.69 437.618C516.69 437.342 516.914 437.118 517.19 437.118H556.112C556.388 437.118 556.612 437.342 556.612 437.618C556.611 437.895 556.388 438.118 556.111 438.118Z" fill="black"/>
<path d="M441.082 296.445C429.548 290.882 427.377 278.398 444.203 273.649C432.397 259.129 444.338 250.716 452.345 249.087C460.351 247.459 476.227 251.53 491.56 264.692C506.894 277.854 513.543 278.533 518.157 288.845C522.77 299.158 520.599 307.164 515.985 317.613C511.372 328.061 510.829 331.318 519.785 339.731C528.741 348.144 536.068 356.557 529.827 372.433C523.585 388.309 448.953 382.474 445.425 371.618C441.897 360.763 450.31 321.004 450.31 321.004L441.082 296.445Z" fill="black"/>
<path d="M432.533 361.443C430.768 353.709 432.817 335.95 448.273 327.112C459.546 320.666 465.506 329.691 465.506 329.691L467.27 359.408C467.27 359.408 436.332 361.579 432.533 361.443Z" fill="black"/>
<path d="M345.688 316.8C344.332 314.901 342.299 312.301 340.4 313.658C338.501 315.014 341.525 326.033 350.031 324.67C347.859 321.414 345.688 316.8 345.688 316.8Z" fill="white"/>
<path d="M348.606 325.286C343.839 325.286 340.898 321.39 339.83 318.056C339.276 316.327 339.017 314.032 340.11 313.251C340.546 312.94 341.019 312.781 341.513 312.781C343.201 312.781 344.713 314.573 346.095 316.508C346.162 316.632 348.322 321.205 350.447 324.392C350.541 324.534 350.557 324.713 350.489 324.869C350.421 325.025 350.278 325.136 350.11 325.163C349.602 325.245 349.096 325.286 348.606 325.286ZM341.513 313.781C341.227 313.781 340.959 313.874 340.691 314.065C340.319 314.33 340.145 315.758 340.783 317.751C341.795 320.91 344.381 324.286 348.606 324.286C348.606 324.286 348.606 324.286 348.607 324.286C348.793 324.286 348.983 324.279 349.173 324.266C347.16 321.087 345.256 317.055 345.236 317.012C344.574 316.1 342.918 313.781 341.513 313.781Z" fill="black"/>
<path d="M369.706 318.022C365.093 316.529 362.107 312.866 363.601 309.879C365.093 306.895 369.978 310.829 373.371 313.543C376.764 316.257 380.02 316.8 380.02 316.8C380.02 316.8 374.998 319.378 369.706 318.022Z" fill="white"/>
<path d="M372.935 318.916C371.772 318.916 370.644 318.778 369.582 318.506C366.489 317.506 364.018 315.533 363.102 313.351C362.566 312.073 362.584 310.795 363.153 309.656C363.593 308.776 364.339 308.311 365.309 308.311C367.629 308.311 370.949 310.967 373.617 313.101C376.922 315.745 380.071 316.302 380.102 316.307C380.314 316.343 380.48 316.511 380.513 316.724C380.545 316.937 380.439 317.147 380.247 317.245C380.115 317.313 376.946 318.916 372.935 318.916ZM365.31 309.31C364.719 309.31 364.318 309.562 364.048 310.102C363.607 310.985 363.598 311.948 364.024 312.963C364.83 314.885 367.066 316.641 369.86 317.545C370.811 317.787 371.855 317.915 372.935 317.915C375.205 317.915 377.222 317.352 378.471 316.902C377.163 316.468 375.141 315.598 373.058 313.932C370.581 311.952 367.279 309.31 365.31 309.31Z" fill="black"/>
<path d="M374.547 359.681C374.186 351.719 373.281 335.798 372.015 330.733C370.748 325.667 362.786 327.112 362.244 326.932C361.702 326.751 351.796 330.505 346.911 320.6C342.025 310.694 345.961 307.03 348.675 307.98C349.625 304.723 352.339 305.673 353.831 307.301C355.188 304.451 359.123 307.438 360.073 311.101C361.023 314.765 361.972 318.022 369.571 317.072C377.171 316.122 386.533 313.951 390.197 324.942C393.861 335.933 396.846 353.031 396.846 353.031C396.846 353.031 395.399 363.888 374.547 359.681Z" fill="white"/>
<path d="M383.243 361.149C380.626 361.149 377.667 360.82 374.448 360.17C374.223 360.124 374.057 359.932 374.047 359.702C373.803 354.319 372.899 336.332 371.529 330.852C370.95 328.542 368.664 327.37 364.733 327.37C364.094 327.37 363.528 327.399 363.099 327.422C362.604 327.447 362.329 327.458 362.161 327.426C362.053 327.434 361.862 327.477 361.601 327.529C360.753 327.699 359.333 327.982 357.617 327.982C352.629 327.982 348.772 325.505 346.461 320.82C343.061 313.926 344.049 310.492 344.941 309.058C345.727 307.794 347.049 307.154 348.348 307.379C349.037 305.588 350.264 305.306 350.968 305.306C351.873 305.306 352.874 305.746 353.736 306.507C354.171 305.96 354.76 305.665 355.444 305.665C357.434 305.665 359.824 308.147 360.557 310.974C361.359 314.067 362.052 316.738 367.123 316.738C367.841 316.738 368.644 316.683 369.509 316.575C370.066 316.506 370.633 316.429 371.206 316.352C373.438 316.051 375.746 315.741 378.011 315.741C382.152 315.741 387.97 316.679 390.672 324.783C394.306 335.683 397.31 352.772 397.339 352.944C397.348 352.994 397.349 353.046 397.342 353.096C397.33 353.177 396.117 361.149 383.243 361.149ZM375.028 359.267C378.034 359.853 380.796 360.15 383.243 360.15C394.621 360.15 396.196 353.764 396.338 353.032C396.105 351.715 393.2 335.535 389.722 325.1C387.252 317.692 382.165 316.742 378.01 316.742C375.813 316.742 373.538 317.048 371.339 317.344C370.763 317.422 370.193 317.498 369.633 317.569C368.727 317.682 367.883 317.74 367.123 317.74C361.278 317.74 360.381 314.28 359.589 311.228C358.923 308.66 356.814 306.667 355.444 306.667C354.935 306.667 354.555 306.945 354.282 307.517C354.211 307.667 354.069 307.772 353.905 307.796C353.737 307.822 353.574 307.763 353.462 307.64C352.709 306.819 351.754 306.308 350.968 306.308C350.115 306.308 349.505 306.918 349.154 308.121C349.115 308.253 349.025 308.363 348.903 308.426C348.781 308.49 348.637 308.497 348.51 308.453C347.53 308.112 346.43 308.56 345.792 309.588C345.163 310.601 344.055 313.679 347.36 320.381C349.521 324.763 352.973 326.984 357.619 326.984C359.236 326.984 360.595 326.713 361.407 326.55C361.792 326.473 362.025 326.426 362.189 326.426C362.243 326.426 362.352 326.442 362.403 326.458C362.588 326.449 362.794 326.438 363.049 326.425C363.491 326.403 364.075 326.372 364.735 326.372C369.184 326.372 371.798 327.799 372.501 330.612C373.86 336.053 374.759 353.43 375.028 359.267Z" fill="black"/>
<path d="M350.775 325.908C350.669 325.908 350.561 325.874 350.47 325.804C347.398 323.43 345.359 319.882 344.411 315.259C344.355 314.989 344.53 314.724 344.8 314.668C345.074 314.613 345.335 314.787 345.39 315.058C346.289 319.44 348.203 322.79 351.081 325.013C351.3 325.182 351.34 325.495 351.171 325.714C351.073 325.842 350.925 325.908 350.775 325.908Z" fill="black"/>
<path d="M363.601 324.085C363.594 324.085 363.586 324.085 363.579 324.085C360.784 323.963 358.469 322.768 356.699 320.531C353.313 316.253 352.928 309.36 353.339 307.207C353.39 306.936 353.649 306.756 353.924 306.81C354.195 306.862 354.373 307.123 354.321 307.395C353.948 309.349 354.342 315.943 357.483 319.911C359.064 321.91 361.13 322.978 363.622 323.086C363.898 323.099 364.112 323.332 364.1 323.607C364.088 323.875 363.867 324.085 363.601 324.085Z" fill="black"/>
<path d="M358.309 327.748C358.295 327.748 358.281 327.747 358.267 327.746C355.655 327.528 353.475 326.31 351.788 324.127C347.796 318.959 347.819 309.975 348.181 307.894C348.228 307.622 348.486 307.435 348.76 307.488C349.032 307.535 349.214 307.794 349.167 308.066C348.821 310.051 348.793 318.613 352.58 323.516C354.088 325.468 356.03 326.557 358.351 326.75C358.626 326.772 358.83 327.015 358.807 327.29C358.785 327.551 358.566 327.748 358.309 327.748Z" fill="black"/>
<path d="M452.345 368.635C456.823 370.67 469.849 375.284 493.46 369.314C492.645 385.597 491.018 419.928 491.018 419.928C491.018 419.928 471.342 431.055 458.179 426.442C454.516 420.199 452.345 368.635 452.345 368.635Z" fill="black"/>
<path d="M456.375 355.75C460.31 355.207 464.557 353.709 464.149 347.195C463.741 340.681 462.657 332.132 462.657 332.132C452.48 331.997 442.438 326.704 437.825 316.256C433.211 305.808 439.317 300.38 442.71 289.525C446.102 278.67 452.481 269.714 466.727 270.664C480.975 271.613 488.574 278.398 488.574 278.398C486.132 291.153 483.689 309.201 488.981 310.287C494.273 311.372 495.631 302.01 495.631 302.01C503.637 298.074 512.023 302.864 508.793 309.879C504.858 318.428 495.495 314.086 495.495 314.086C493.596 318.971 485.59 324.399 485.59 324.399C486.811 334.441 488.027 351.051 495.625 352.001C492.504 367.878 490.882 373.657 490.882 373.657C490.882 373.657 463.608 380.305 453.701 370.536C454.108 367.143 456.375 355.75 456.375 355.75Z" fill="white"/>
<path d="M472.243 376.365C463.389 376.365 457.033 374.523 453.349 370.891C453.24 370.782 453.186 370.628 453.204 370.475C453.608 367.102 455.791 356.118 455.884 355.652C455.925 355.443 456.095 355.284 456.306 355.255C460.153 354.724 464.033 353.356 463.65 347.227C463.3 341.628 462.437 334.437 462.214 332.624C451.144 332.322 441.65 326.159 437.367 316.459C433.972 308.773 436.197 303.796 439.014 297.493C440.126 295.004 441.277 292.429 442.231 289.376C446.532 275.613 454.534 269.349 466.759 270.165C481.015 271.115 488.59 277.744 488.906 278.025C489.037 278.142 489.097 278.32 489.064 278.492C485.399 297.633 485.405 309.043 489.081 309.797C489.331 309.849 489.578 309.875 489.815 309.875C493.936 309.875 495.124 302.018 495.134 301.939C495.159 301.775 495.261 301.634 495.409 301.562C497.364 300.601 499.465 300.093 501.485 300.093C504.803 300.093 507.635 301.421 509.061 303.647C510.243 305.493 510.308 307.781 509.246 310.088C507.116 314.717 503.441 315.689 500.734 315.689C498.526 315.689 496.617 315.067 495.76 314.738C493.742 319.134 487.482 323.685 486.12 324.638C486.212 325.404 486.304 326.205 486.4 327.033C487.548 337.015 489.122 350.684 495.684 351.505C495.822 351.523 495.947 351.596 496.028 351.708C496.109 351.82 496.14 351.961 496.113 352.098C493.024 367.813 491.378 373.735 491.361 373.792C491.312 373.966 491.173 374.101 490.998 374.143C490.909 374.164 481.768 376.365 472.243 376.365ZM454.228 370.35C457.746 373.679 463.804 375.366 472.243 375.366C480.704 375.366 488.865 373.606 490.477 373.238C490.829 371.912 492.388 365.827 495.035 352.406C488.141 350.892 486.566 337.207 485.408 327.147C485.301 326.213 485.197 325.312 485.094 324.459C485.072 324.272 485.155 324.09 485.31 323.984C485.388 323.931 493.208 318.587 495.03 313.904C495.08 313.776 495.181 313.674 495.309 313.622C495.437 313.57 495.581 313.575 495.705 313.632C495.727 313.643 498.024 314.689 500.735 314.689C504.248 314.689 506.806 313 508.339 309.67C509.268 307.653 509.227 305.757 508.22 304.186C506.98 302.25 504.462 301.093 501.487 301.093C499.698 301.093 497.835 301.526 496.084 302.348C495.824 303.844 494.362 310.875 489.817 310.875C489.512 310.875 489.198 310.842 488.882 310.777C484.424 309.862 484.137 299.034 488.029 278.593C486.707 277.526 479.298 272.002 466.695 271.162C454.857 270.375 447.389 276.228 443.188 289.674C442.215 292.783 441 295.502 439.929 297.901C437.213 303.977 435.069 308.776 438.283 316.054C442.463 325.519 451.804 331.489 462.665 331.632C462.914 331.635 463.123 331.821 463.154 332.07C463.165 332.155 464.246 340.709 464.649 347.164C465.077 354.007 460.48 355.631 456.797 356.194C456.425 358.078 454.653 367.107 454.228 370.35Z" fill="black"/>
<path d="M453.158 310.244C453.074 310.244 452.989 310.223 452.911 310.179C450.048 308.548 448.547 306.949 448.322 305.292C448.044 303.234 449.712 301.562 451.325 299.944C451.64 299.628 451.955 299.312 452.251 298.998C454.892 296.185 454.612 291.06 453.234 287.488C452.643 285.957 451.646 285.049 450.271 284.793C448.455 284.46 446.496 285.358 445.568 286.379C445.382 286.584 445.067 286.599 444.862 286.413C444.657 286.227 444.642 285.911 444.828 285.707C445.966 284.455 448.262 283.407 450.455 283.81C451.65 284.034 453.266 284.79 454.168 287.129C455.704 291.111 455.933 296.538 452.979 299.683C452.677 300.004 452.356 300.327 452.033 300.651C450.592 302.096 449.101 303.591 449.313 305.159C449.491 306.468 450.867 307.864 453.405 309.31C453.645 309.447 453.729 309.752 453.593 309.992C453.5 310.153 453.332 310.244 453.158 310.244Z" fill="black"/>
<path d="M477.674 293.328C477.513 293.328 477.356 293.25 477.259 293.106C471.984 285.237 466.376 286.321 463.502 287.671C463.255 287.788 462.956 287.681 462.837 287.43C462.72 287.18 462.828 286.882 463.078 286.765C465.626 285.573 472.187 283.744 478.089 292.549C478.243 292.778 478.182 293.089 477.952 293.242C477.867 293.301 477.77 293.328 477.674 293.328Z" fill="black"/>
<path d="M469.618 300.443C469.089 302.134 467.878 303.264 466.913 302.964C465.949 302.662 465.596 301.045 466.124 299.352C466.651 297.66 467.863 296.531 468.826 296.834C469.791 297.135 470.146 298.749 469.618 300.443Z" fill="black"/>
<path d="M469.08 297.941C468.864 297.941 468.664 297.8 468.601 297.583L467.696 294.507C467.618 294.241 467.769 293.964 468.034 293.886C468.303 293.809 468.578 293.958 468.655 294.224L469.56 297.3C469.638 297.566 469.487 297.843 469.222 297.921C469.174 297.935 469.127 297.941 469.08 297.941Z" fill="black"/>
<path d="M449.852 296.734C449.324 298.425 448.113 299.554 447.148 299.255C446.183 298.954 445.831 297.336 446.358 295.644C446.886 293.951 448.098 292.823 449.061 293.125C450.024 293.426 450.381 295.04 449.852 296.734Z" fill="black"/>
<path d="M449.314 294.232C449.098 294.232 448.898 294.091 448.835 293.874L447.93 290.797C447.852 290.531 448.003 290.254 448.269 290.176C448.532 290.097 448.812 290.248 448.889 290.514L449.794 293.592C449.872 293.857 449.721 294.134 449.456 294.212C449.408 294.226 449.361 294.232 449.314 294.232Z" fill="black"/>
<path d="M452.959 320.282C451.905 320.282 451.022 319.919 450.335 319.201C449.12 317.931 448.578 315.579 448.725 312.211C448.734 312.017 448.854 311.845 449.034 311.771C449.213 311.697 449.419 311.733 449.562 311.864C450.279 312.519 452.381 313.284 455.949 313.284C458.175 313.284 460.626 312.971 463.037 312.381C463.253 312.329 463.472 312.421 463.584 312.608C463.697 312.795 463.676 313.033 463.532 313.197C459.573 317.699 455.72 320.282 452.959 320.282ZM449.702 313.156C449.691 315.725 450.155 317.566 451.057 318.509C452.96 320.494 457.196 318.465 461.723 313.692C456.881 314.641 452.012 314.364 449.702 313.156Z" fill="black"/>
<path d="M450.852 319.381C450.767 319.381 450.681 319.36 450.603 319.315C450.364 319.177 450.281 318.872 450.418 318.632C451.594 316.586 456.37 315.31 459.222 316.277C459.484 316.366 459.624 316.65 459.535 316.911C459.447 317.173 459.161 317.311 458.901 317.224C456.32 316.348 452.157 317.614 451.285 319.13C451.193 319.291 451.025 319.381 450.852 319.381Z" fill="black"/>
<path d="M462.444 332.679C462.151 332.676 461.885 332.473 461.886 332.177C461.887 331.902 462.111 331.679 462.386 331.679C462.408 331.677 462.426 331.679 462.446 331.679C467.512 331.679 475.678 328.757 481.148 325.859C481.392 325.728 481.696 325.822 481.824 326.066C481.954 326.31 481.861 326.613 481.617 326.742C476.037 329.698 467.675 332.679 462.444 332.679Z" fill="black"/>
<path d="M374.185 357.373C376.492 358.187 387.754 358.187 396.846 353.03C398.338 361.307 403.902 386.004 403.902 386.004C411.636 377.591 422.356 367.686 427.242 363.479C432.127 359.273 439.59 355.202 446.917 355.473C454.245 355.744 458.044 355.337 458.044 355.337C458.044 355.337 452.21 365.65 455.195 394.281C458.179 422.913 459.13 426.712 459.13 426.712L449.089 425.763C449.089 425.763 451.124 419.385 445.018 412.058C438.912 404.73 437.148 400.117 436.333 394.689C429.82 401.338 412.451 419.792 397.932 419.928C383.413 420.064 378.256 407.037 376.221 390.753C374.185 374.47 374.185 357.373 374.185 357.373Z" fill="#2196F3"/>
<path d="M486 419.75C481.929 420.971 464.421 426.17 456.415 425.627C448.409 425.084 440.132 421.148 433.618 422.777C427.105 424.405 415.932 432.615 416.724 435.871C417.334 438.382 420.32 437.025 420.32 437.025C421.406 439.332 423.577 438.11 423.577 438.11C424.663 440.418 429.684 439.06 432.669 436.482C435.654 433.904 439.317 432.547 443.932 434.175C448.545 435.803 455.737 438.11 464.15 438.517C472.563 438.924 492.376 437.999 492.376 437.999C492.376 437.999 495.362 426.263 486 419.75Z" fill="white"/>
<path d="M425.977 439.792C424.554 439.792 423.788 439.285 423.376 438.74C423.101 438.837 422.719 438.933 422.297 438.933C421.632 438.933 420.74 438.698 420.088 437.645C419.734 437.759 419.208 437.891 418.655 437.891C417.395 437.891 416.537 437.215 416.238 435.989C415.293 432.099 427.244 423.855 433.497 422.292C434.593 422.019 435.762 421.885 437.072 421.885C440.219 421.885 443.562 422.657 447.101 423.475C450.172 424.185 453.347 424.918 456.449 425.128C463.493 425.614 478.091 421.6 485.856 419.272C486.002 419.228 486.161 419.253 486.285 419.34C495.822 425.974 492.89 438.003 492.859 438.123C492.805 438.337 492.618 438.489 492.398 438.499C492.264 438.506 478.971 439.121 469.634 439.121H469.633C467.405 439.121 465.552 439.086 464.124 439.017C455.93 438.62 448.939 436.474 443.765 434.648C439.838 433.263 436.333 433.977 432.995 436.862C430.997 438.587 428.111 439.792 425.977 439.792ZM423.577 437.611C423.629 437.611 423.681 437.619 423.73 437.635C423.862 437.677 423.97 437.772 424.029 437.897C424.377 438.636 425.28 438.792 425.976 438.792C427.892 438.792 430.509 437.687 432.341 436.103C435.954 432.983 439.827 432.197 444.097 433.704C449.208 435.508 456.109 437.628 464.173 438.018C465.585 438.086 467.422 438.121 469.633 438.121C478.055 438.121 489.712 437.619 491.966 437.518C492.351 435.545 493.751 425.926 485.909 420.299C478.016 422.658 463.514 426.613 456.38 426.126C453.199 425.91 449.984 425.167 446.876 424.449C443.393 423.644 440.104 422.885 437.071 422.885C435.843 422.885 434.754 423.009 433.738 423.263C427.187 424.9 416.528 432.954 417.209 435.753C417.398 436.529 417.857 436.892 418.654 436.892C419.389 436.892 420.106 436.574 420.113 436.57C420.363 436.461 420.656 436.567 420.771 436.813C421.126 437.567 421.626 437.934 422.295 437.934C422.853 437.934 423.327 437.676 423.332 437.674C423.409 437.632 423.492 437.611 423.577 437.611Z" fill="black"/>
<path d="M547.466 410.157C541.495 394.145 536.339 376.777 531.454 368.906C526.569 361.036 520.734 353.709 509.879 352.623C502.009 352.08 494.952 351.809 494.952 351.809C492.374 358.594 484.097 391.432 488.439 418.978C486.539 418.978 485.182 420.064 485.182 420.064C489.524 423.592 491.966 429.969 490.881 438.518C509.742 440.01 529.69 437.026 536.202 435.397C542.717 433.769 553.436 426.17 547.466 410.157ZM509.2 415.178L510.15 403.781L513.271 414.365L509.2 415.178Z" fill="#2196F3"/>
<path d="M366.9 317.658C366.638 317.658 366.418 317.454 366.401 317.189C366.384 316.914 366.593 316.676 366.869 316.659C367.801 316.6 368.923 316.495 370.145 316.38C374.246 315.992 379.349 315.513 382.4 316.299C382.668 316.368 382.828 316.641 382.759 316.908C382.69 317.175 382.418 317.336 382.15 317.267C379.264 316.522 374.26 316.995 370.239 317.374C369.005 317.49 367.872 317.598 366.931 317.656C366.921 317.658 366.91 317.658 366.9 317.658Z" fill="black"/>
<path d="M436.738 397.495C436.505 397.495 436.297 397.331 436.249 397.093C435.342 392.553 436.356 386.733 437.765 382.979C437.862 382.72 438.152 382.586 438.409 382.687C438.668 382.784 438.799 383.072 438.701 383.331C437.688 386.033 436.237 391.931 437.23 396.898C437.284 397.169 437.109 397.432 436.837 397.486C436.804 397.492 436.771 397.495 436.738 397.495Z" fill="black"/>
<path d="M485.484 420.2C485.262 420.2 485.06 420.052 485.001 419.828C484.931 419.561 485.09 419.287 485.356 419.217C489.745 418.055 517.239 412.661 526.933 411.83C527.204 411.806 527.45 412.01 527.474 412.285C527.497 412.56 527.293 412.803 527.019 412.826C517.366 413.654 489.984 419.026 485.612 420.183C485.569 420.195 485.526 420.2 485.484 420.2Z" fill="black"/>
<path d="M510.828 406.044C510.616 406.044 510.42 405.908 510.351 405.696C509.369 402.627 506.955 392.945 505.795 388.292L505.457 386.94C505.391 386.672 505.553 386.401 505.821 386.333C506.085 386.266 506.36 386.429 506.427 386.697L506.765 388.05C507.922 392.693 510.331 402.354 511.303 405.392C511.387 405.655 511.242 405.937 510.979 406.021C510.93 406.036 510.879 406.044 510.828 406.044Z" fill="black"/>
<path d="M423.578 438.61C423.562 438.61 423.547 438.609 423.532 438.608C423.257 438.583 423.053 438.339 423.079 438.065C423.244 436.248 430.551 430.151 437.144 428.267C437.413 428.187 437.687 428.345 437.762 428.61C437.838 428.876 437.685 429.153 437.419 429.228C430.784 431.124 424.181 436.979 424.074 438.155C424.052 438.415 423.833 438.61 423.578 438.61Z" fill="black"/>
<path d="M420.32 437.525C420.044 437.525 419.82 437.301 419.82 437.025C419.82 434.417 425.296 428.916 433.876 426.234C434.144 426.151 434.42 426.299 434.503 426.562C434.585 426.826 434.439 427.106 434.175 427.189C425.365 429.942 420.821 435.331 420.821 437.025C420.82 437.302 420.597 437.525 420.32 437.525Z" fill="black"/>
<path d="M455.731 436.635H412.88L395.636 386.271C394.131 381.879 389.102 378.286 384.46 378.286H311.282C306.641 378.286 304.074 381.88 305.577 386.271L323.341 438.153C325.284 443.19 325.512 447.336 330.562 447.336H455.732C458.685 447.336 461.082 444.941 461.082 441.984C461.081 439.029 458.685 436.635 455.731 436.635Z" fill="#D1D1D1"/>
<path d="M409.102 438.065H323.994C323.718 438.065 323.494 437.841 323.494 437.565C323.494 437.289 323.718 437.065 323.994 437.065H409.102C409.378 437.065 409.602 437.289 409.602 437.565C409.602 437.841 409.378 438.065 409.102 438.065Z" fill="black"/>
<path d="M358.025 420.098C354.327 420.098 350.26 416.429 348.958 411.918C348.211 409.336 348.481 406.927 349.699 405.307C350.593 404.118 351.946 403.463 353.509 403.463C357.209 403.463 361.275 407.133 362.574 411.643C363.321 414.223 363.051 416.633 361.832 418.254C360.938 419.443 359.587 420.098 358.025 420.098ZM353.509 404.463C352.25 404.463 351.209 404.962 350.499 405.907C349.472 407.273 349.261 409.363 349.919 411.64C351.106 415.752 354.743 419.097 358.026 419.097C359.283 419.097 360.323 418.598 361.033 417.653C362.061 416.285 362.273 414.196 361.614 411.92C360.429 407.808 356.793 404.463 353.509 404.463Z" fill="black"/>
</g>
<defs>
<clipPath id="clip0_302_4">
<rect width="750" height="500" fill="white"/>
</clipPath>
</defs>
</svg>
